<svg id="图层_1" data-name="图层 1" xmlns="http://www.w3.org/2000/svg" xmlns:xlink="http://www.w3.org/1999/xlink" viewBox="0 0 850.39 850.39"><defs><style>.cls-1{fill:none;}.cls-2{clip-path:url(#clip-path);}.cls-3{fill:#e9eaeb;}.cls-4{fill:#fff;}.cls-5{fill:#f9f9f9;}.cls-6{fill:#535353;}</style><clipPath id="clip-path"><rect class="cls-1" x="22.56" y="16.14" width="803.76" height="818.88"/></clipPath></defs><title>专业技术支持</title><g class="cls-2"><path class="cls-3" d="M22.56,418.14a401.64,401.64,0,1,0,803.28,0C825.84,196.3,646,16.46,424.16,16.46S22.56,196.3,22.56,418.14Zm0,0"/></g><path class="cls-4" d="M811.6,686.86V512.14a51.15,51.15,0,0,0-51-51h-35.2a28.61,28.61,0,0,0-20.64,8.72l-55,56.88-53.28-80H252.16L198.88,526.7l-55-56.88a28.75,28.75,0,0,0-20.64-8.72H88.08a51.14,51.14,0,0,0-51.12,51V686.86A68.54,68.54,0,0,0,61,738.3L36.88,776.7v43H811.6v-43l-24.08-38.48a68.61,68.61,0,0,0,24.08-51.28Zm0,0"/><path class="cls-5" d="M539,446.78v-59.6c0-45.52-80.4-69-121.92-69s-121.92,23.44-121.92,69v59.6"/><path class="cls-6" d="M553.36,446.78H524.64v-59.6c0-33.36-70.4-54.72-107.6-54.72s-107.6,21.28-107.6,54.72v59.6H280.72v-59.6c0-58.24,90.24-83.36,136.24-83.36S553.2,329,553.2,387.18v59.6Zm231,311.68-15-24.48a55.91,55.91,0,0,0,27.84-47V512.14a36.69,36.69,0,0,0-36.64-36.64h-35.2a14.34,14.34,0,0,0-10.32,4.4l-79,81.52H561.52a37.56,37.56,0,0,0,8.08,19.76,31.34,31.34,0,0,0,24.88,9h77.2l66.56-67.44,20.56,20.16-75.28,76h-89a58.83,58.83,0,0,1-46.32-18.64c-18.8-21.2-15.84-51.36-15.44-54.72l1.52-12.64h89.52l70.4-73a43,43,0,0,1,31-13.12h35.2a65.42,65.42,0,0,1,65.52,65.44V687a83.78,83.78,0,0,1-41.44,71.44Zm0,0"/><path class="cls-4" d="M725.52,418.14c32.08,0,57.36-27.52,57.36-61.44V336.14c0-33.92-25.36-61.44-57.36-61.44s-57.36,27.52-57.36,61.44v20.48c0,33.92,25.36,61.52,57.36,61.52Zm0,0"/><path class="cls-6" d="M725.52,260.22c-39.52,0-71.68,34.08-71.68,75.84v20.4c0,41.84,32.16,75.84,71.68,75.84s71.76-33.84,71.68-75.76V336.06C797.2,294.22,765,260.22,725.52,260.22Zm43,96.4c0,25.84-19.36,47-43,47s-43-21-43-47v-20.8c0-25.84,19.6-47,43-47V289c23.76,0,43.12,21.12,43,47.12Z"/><path class="cls-6" d="M64.16,758.46a84.09,84.09,0,0,1-41.52-71.6V512.14a65.42,65.42,0,0,1,65.28-65.36h35.2a43.63,43.63,0,0,1,31.2,13.12l70.4,72.88h89.76L316,545.42c.4,3.36,3.44,33.6-15.44,54.72A58.69,58.69,0,0,1,254,618.78H165.12l-75-76,20.4-20.16L177,590.06h77a31.6,31.6,0,0,0,24.8-8.88,37.38,37.38,0,0,0,8.24-19.92H212.56l-79-81.6a14.34,14.34,0,0,0-10.32-4.4H88.08a36.74,36.74,0,0,0-36.8,36.64V686.62a55.74,55.74,0,0,0,27.84,47Z"/><path class="cls-6" d="M825.92,834.06H22.56V772.54l100.8-161.28,24.32,15.2-96.4,154.4v24.56h746V780.86L700.8,626.54l24.32-15.2,100.8,161.28ZM641.84,540.86l-53.12-79.68H259.84l-53.12,79.68L182.8,524.94l61.6-92.48H604.08l61.68,92.48Zm0,0"/><path class="cls-4" d="M123,418.14c-32.08,0-57.36-27.52-57.36-61.44V336.14C65.68,302.22,91,274.7,123,274.7s57.36,27.52,57.36,61.44v20.48c0,33.92-25.36,61.52-57.36,61.52Zm0,0"/><path class="cls-6" d="M123,432.3c-39.52,0-71.68-33.84-71.68-75.68V336.14c0-41.76,32.16-75.84,71.68-75.84s71.68,34,71.68,75.84v20.48c0,41.84-32.16,75.68-71.68,75.68Zm0-143.44c-23.44,0-43,21.12-43,47v20.8c0,26,19.28,47,43,47s43-21.12,43-47V336.14c0-26-19.28-47.12-43-47.12Zm0,0"/><path class="cls-4" d="M424.24,274.7c32.08,0,57.36-27.52,57.36-61.44V192.7c0-33.92-25.36-61.44-57.36-61.44s-57.36,27.52-57.36,61.44v20.48c.08,34,25.36,61.52,57.36,61.52Zm0,0"/><path class="cls-6" d="M424.24,289c-39.52,0-71.68-34-71.68-75.84V192.7c0-42.08,32.24-75.84,71.68-75.84S496,150.62,496,192.7v20.48c0,41.76-32.16,75.84-71.76,75.84Zm0-143.44c-23.44,0-43,21.12-43,47V213c0,26,19.28,47,43,47s43-21.12,43-47V192.7c.08-26-19.52-47.12-43-47.12Zm0,0"/></svg>