<svg id="图层_1" data-name="图层 1" xmlns="http://www.w3.org/2000/svg" xmlns:xlink="http://www.w3.org/1999/xlink" viewBox="0 0 850.39 850.39"><defs><style>.cls-1{fill:none;}.cls-2{clip-path:url(#clip-path);}.cls-3{fill:#333;}</style><clipPath id="clip-path"><rect class="cls-1" x="66.56" y="95.14" width="715.88" height="661.92"/></clipPath></defs><title>专业团队</title><g class="cls-2"><path class="cls-3" d="M355,506.26c-113.2,0-205.2-92.08-205.2-205.2S241.8,95.78,355,95.78,560.2,187.86,560.2,301,468.12,506.26,355,506.26Zm0-333.12c-70.48,0-127.84,57.36-127.84,127.84S284.52,428.82,355,428.82,482.84,371.46,482.84,301,425.48,173.14,355,173.14Zm0,0"/><path class="cls-3" d="M604.76,756A38.75,38.75,0,0,1,566,717.3c0-116.4-94.72-211.12-211.12-211.12s-211,94.8-211,211.2a38.72,38.72,0,1,1-77.44,0c0-159,129.44-288.48,288.48-288.48S643.4,558.34,643.4,717.38A38.56,38.56,0,0,1,604.76,756Zm138.8-55.52a38.75,38.75,0,0,1-38.72-38.72c0-81.2-45.52-153.84-118.88-189.6a38.69,38.69,0,0,1-5.2-66.48,127.77,127.77,0,0,0-39.68-228.16,38.7,38.7,0,0,1,20.16-74.72c89.28,24.08,151.6,105.6,151.6,198.16a205,205,0,0,1-46.48,129.84c72.56,53.84,115.84,138.32,115.84,231a38.58,38.58,0,0,1-38.64,38.72Zm0,0"/></g></svg>