<svg id="图层_1" data-name="图层 1" xmlns="http://www.w3.org/2000/svg" xmlns:xlink="http://www.w3.org/1999/xlink" viewBox="0 0 850.39 850.39"><defs><style>.cls-1{fill:none;}.cls-2{clip-path:url(#clip-path);}.cls-3{fill:#333;}</style><clipPath id="clip-path"><rect class="cls-1" x="66.56" y="94.14" width="715.88" height="662.88"/></clipPath></defs><title>坚持梦想 创新不止</title><g class="cls-2"><path class="cls-3" d="M629.9,756.06H218.14a106.14,106.14,0,0,1-105.28-93.44L66.7,277.5a35.73,35.73,0,0,1,52.16-35.92L260,315.82l134.16-205.2a35.78,35.78,0,0,1,59.84,0L588.22,315.9l141.12-74.24a35.73,35.73,0,0,1,52.16,35.92L735.26,662.7A106.21,106.21,0,0,1,629.9,756.06ZM145.82,336.62,183.9,654.14a34.52,34.52,0,0,0,34.32,30.4H630a34.63,34.63,0,0,0,34.32-30.4l38.08-317.52L592.78,394.3a35.77,35.77,0,0,1-46.56-12.08L424.06,195.58,302,382.3a35.75,35.75,0,0,1-46.56,12.08Zm0,0"/></g><path class="cls-3" d="M424.06,618.62a72.5,72.5,0,0,1-49.84-19.84L295.1,523.66a35.76,35.76,0,1,1,49.28-51.84l79.12,75.12,80.24-75.12A35.76,35.76,0,0,1,553,523.66L473.9,598.78a72.5,72.5,0,0,1-49.84,19.84Zm0,0"/></svg>