<svg id="图层_1" data-name="图层 1" xmlns="http://www.w3.org/2000/svg" viewBox="0 0 850.39 850.39"><defs><style>.cls-1{fill:#e9eaeb;}.cls-2{fill:#aaa;}.cls-3{fill:none;}.cls-4{fill:#535353;}.cls-5{fill:#fff;}</style></defs><title>矢量智能对象</title><path class="cls-1" d="M361.24,294.22c0,127.2,103.12,230.32,230.32,230.32S821.88,421.42,821.88,294.22,718.76,63.9,591.56,63.9,361.24,167,361.24,294.22Zm0,0"/><path class="cls-2" d="M233.32,166.3h89.6v25.6h-89.6Zm-51.21,0h25.61v25.6H182.11Zm-51.19,0h25.6v25.6h-25.6Zm-25.6-64h25.6v25.6h-25.6Zm-51.12,0H79.79v25.6H54.2Zm460.56,25.6H380.6l-3.36-7.6a26.09,26.09,0,0,0-22.64-15.76,24.63,24.63,0,0,0-9,1.44l-12.16,5-4.64-12.24a48,48,0,0,0-44.65-31c-26.32,0-47.67,28.88-47.67,47.68V127.9H156.6V102.38h55.84c6.88-29.84,36.4-60.48,71.84-60.48A73.58,73.58,0,0,1,348,79.26a37.83,37.83,0,0,1,6.72-.32A51,51,0,0,1,396.6,102.3H514.84v25.6Zm307.12,63.92H764.36L760.52,186c-5-7.68-18.08-20.08-34.73-18.08l-8.31,1-4.24-7.28a41,41,0,0,0-34.48-21.2,41.75,41.75,0,0,0-40,38.64v12.72H502V166.38H614.68A67.56,67.56,0,0,1,679,115.1a65.82,65.82,0,0,1,52.24,27.28,64.46,64.46,0,0,1,46.8,24h44.24Zm-371-25.52h25.6v25.6h-25.6Zm-51.2,0h25.6v25.6h-25.6ZM118.11,780.46H258.84v25.6H118.11Zm191.93,0H450.76v25.6H310Zm191.91,0H642.68v25.6H502Zm192,0H834.68v25.6H694Zm-627,0h25.6v25.6H66.92Zm-51.2,0h25.6v25.6H15.72Zm0,0"/><rect class="cls-3" x="15.72" y="41.18" width="818.88" height="765.84"/><path class="cls-1" d="M770.68,511.82,708.2,433.5a38.32,38.32,0,0,0-27.12-11.2h-89.6V652.62H773.16A35.78,35.78,0,0,0,809,616.78V550.14A38.63,38.63,0,0,0,797.79,523a38,38,0,0,0-27.11-11.2Zm0,0"/><path class="cls-4" d="M773.24,665.34H578.76V409.18h102.4a50.58,50.58,0,0,1,36.16,15l1,1,58.88,74.24a51.11,51.11,0,0,1,44.63,50.72V616.7a48.54,48.54,0,0,1-48.55,48.64Zm-168.88-25.6H773.24a23,23,0,0,0,23-23V550.22a25.54,25.54,0,0,0-25.6-25.52h-6.24l-65.76-82.56a25.61,25.61,0,0,0-17.52-7h-76.8Zm0,0"/><path class="cls-5" d="M642.68,537.34h64l12.72-12.8L681,473.34H642.6v64Zm0,0"/><path class="cls-4" d="M712,550.14H630.11V460.62h57.61l48.56,65.12Zm-56.48-25.6h45.68l1.2-1.2-27.92-37.2h-19.2Zm0,0"/><path class="cls-1" d="M630,652.46a51.21,51.21,0,1,0,51.21-51,51.17,51.17,0,0,0-51.21,51Zm0,0"/><path class="cls-4" d="M681.16,716.3a64.19,64.19,0,1,1,45.36-18.64,63.81,63.81,0,0,1-45.36,18.64Zm0-102a38.24,38.24,0,1,0,27.2,11.12,38.22,38.22,0,0,0-27.2-11.12Zm0,0"/><polyline class="cls-5" points="182.11 524.54 182.11 294.22 591.56 294.22 591.56 652.54 182.11 652.54 182.11 562.94"/><path class="cls-4" d="M604.36,665.34h-435V562.94h25.6v76.8H578.76V307H194.92V524.54h-25.6V281.42h435Zm0,0"/><path class="cls-1" d="M246.11,652.46a51.21,51.21,0,1,0,25.61-44.24,51.08,51.08,0,0,0-25.61,44.24Zm0,0"/><path class="cls-4" d="M297.32,716.3a64.19,64.19,0,1,1,45.36-18.64,63.81,63.81,0,0,1-45.36,18.64Zm0-102a38.22,38.22,0,1,0,27.2,11.12,38.22,38.22,0,0,0-27.2-11.12ZM118.11,332.62h64v25.6h-64ZM15.72,422.14H130.84v25.6H15.72Zm51.2-89.52h25.6v25.6H66.92ZM15.72,511.74h179.2v25.6H15.72Zm0,0"/></svg>