<svg id="图层_1" data-name="图层 1" xmlns="http://www.w3.org/2000/svg" viewBox="0 0 850.39 850.39"><defs><style>.cls-1{fill:#e9eaeb;}.cls-2{fill:#535353;}.cls-3{fill:#fff;}</style></defs><title>定制化方案</title><path class="cls-1" d="M111.16,412.94a307.2,307.2,0,1,0,153.6-266.08,307.27,307.27,0,0,0-153.6,266.08Zm0,0"/><path class="cls-2" d="M405.56,16.14h25.6v179.2h-25.6ZM206.2,65.66l22.16-12.8,93,161.2-22.16,12.8ZM63.08,220.3l12.8-22.16,161.2,93-12.8,22.16ZM21.56,400.22h179.2v25.6H21.56ZM65.8,604.86l161.2-93L239.8,534,78.6,627ZM609.24,529.1,622,506.94l161.2,93-12.8,22.16Zm39.52-128.88H828v25.6H648.76ZM606.44,286.3l161.2-93,12.8,22.16-161.28,93Zm-86.48-75,93-161.2,22.16,12.8-93,161.2Zm0,0"/><path class="cls-2" d="M342,167.82l24.72-6.64,8.88,33.28-24.72,6.64ZM231.72,240.94l18.08-18.08,24.32,24.32L256,265.26Zm-59,118.16,6.64-24.72,33.28,8.88L206,368Zm1.44,107.36,33.28-8.88L214,482.3l-33.28,8.88Zm61.52,117L260,559.1,278,577.18,253.72,601.5Zm336.48-10.24L590.2,555.1l24.32,24.32L596.44,597.5Zm64.16-98.24,6.64-24.8,33.44,9-6.64,24.8ZM632.2,338l33.28-8.88,6.64,24.72-33.28,8.88ZM568.12,243.1l24.32-24.32,18.08,18.08L586.2,261.18Zm-103-50.16L474,159.66l24.72,6.64-8.88,33.28Zm0,0"/><path class="cls-3" d="M433.64,234A185.45,185.45,0,0,0,293.32,550.14a117.57,117.57,0,0,1,35.36,83.12v22.88H520.76v-23a113.79,113.79,0,0,1,33.84-81.44,184.68,184.68,0,0,0,55.92-132.08A187.05,187.05,0,0,0,433.64,234Zm0,0"/><path class="cls-2" d="M533.56,656.14H508v-23a127.16,127.16,0,0,1,37.76-90.56,171.43,171.43,0,0,0,51.92-123A174.49,174.49,0,0,0,433.08,246.78,172.64,172.64,0,0,0,302.36,541a130.29,130.29,0,0,1,39.28,92.16v23H315.72v-23A105.4,105.4,0,0,0,284,559,198.29,198.29,0,0,1,434.2,221.1a200.49,200.49,0,0,1,189,198.48,196.54,196.54,0,0,1-59.76,141.2A101.55,101.55,0,0,0,533.48,633Zm0,0"/><path class="cls-2" d="M312.76,366.86l-23.6-10.24a140.76,140.76,0,0,1,101-81.6l5,25a115.36,115.36,0,0,0-82.48,66.8Zm-9.6,46.08h-25.6a138.93,138.93,0,0,1,2.8-28.16l25,5.12a117.75,117.75,0,0,0-2.24,23Zm146.08,422.4h-49l-25.6-25.6H354.36v-25.6h30.88l25.6,25.6H438.6l25.6-25.6h31v25.6H474.84ZM316,681.74h217.6v25.6H316Zm0,51.2h217.6v25.6H316Zm153.6-153.6H444V502.7h-38.4v76.64H380V502.7H368.2a36.75,36.75,0,0,1-37.44-36.88,37.4,37.4,0,1,1,74.8.56v10.8H444v-11a38.16,38.16,0,0,1,70.56-19.36,36.91,36.91,0,0,1-33.2,55.76H469.56Zm0-102.4h11.76a11.32,11.32,0,0,0,10.48-5.36,11.13,11.13,0,0,0,0-11.76,11.32,11.32,0,0,0-10.48-5.36,11.78,11.78,0,0,0-11.76,11.76ZM368.2,454.14A11.54,11.54,0,0,0,360,474a11.61,11.61,0,0,0,8.24,3.2H380v-11a11.52,11.52,0,0,0-3.36-8.48,11.94,11.94,0,0,0-8.4-3.52Zm0,0"/></svg>