<svg id="图层_1" data-name="图层 1" xmlns="http://www.w3.org/2000/svg" xmlns:xlink="http://www.w3.org/1999/xlink" viewBox="0 0 850.39 850.39"><defs><style>.cls-1{fill:none;}.cls-2{clip-path:url(#clip-path);}.cls-3{fill:#333;}</style><clipPath id="clip-path"><rect class="cls-1" x="91.56" y="69.14" width="666.88" height="712.8"/></clipPath></defs><title>客服支持 24365</title><g class="cls-2"><path class="cls-3" d="M663,393.7a35.58,35.58,0,0,1-35.6-35.6c0-119.92-90.88-217.52-202.64-217.52S222.08,238.18,222.08,358.1a35.6,35.6,0,0,1-71.2,0c0-159.2,122.8-288.64,273.76-288.64S698.4,199,698.4,358.1A35.39,35.39,0,0,1,663,393.7Zm0,0"/><path class="cls-3" d="M213.12,579.78h-51.2A70.54,70.54,0,0,1,91.44,509.3V412.1a67.29,67.29,0,0,1,67.2-67.2H213.2a68.63,68.63,0,0,1,68.56,68.48v97.84a68.71,68.71,0,0,1-68.64,68.56ZM162.56,416V509.3l48-.64V416Zm50.56,0h0ZM689.6,579.78H638.32a70.54,70.54,0,0,1-70.48-70.48V412.1A67.29,67.29,0,0,1,635,344.9H689.6a68.56,68.56,0,0,1,68.48,68.48v97.84a68.57,68.57,0,0,1-68.48,68.56ZM639,416V509.3l47.92-.64V416Zm50.64,92.64Zm0-92.64h0Zm-345.12,259H505V781H344.48Zm80.24-95.28c-67.28,0-99.6-43.36-108.16-69a35.56,35.56,0,0,1,67.2-23.28c1.6,3.84,10.48,21.12,41,21.12,33,0,40.64-20.16,40.72-20.32A35.58,35.58,0,0,1,533,510.82c-8.56,25.6-41,69-108.24,69Zm0,0"/></g><path class="cls-3" d="M605.92,766.9H455.36a35.6,35.6,0,0,1,0-71.2H606a28.92,28.92,0,0,0,28.88-28.88V550a35.6,35.6,0,0,1,71.2,0v116.8A100.24,100.24,0,0,1,605.92,766.9Zm0,0"/></svg>