<svg id="图层_1" data-name="图层 1" xmlns="http://www.w3.org/2000/svg" viewBox="0 0 850.39 850.39"><defs><style>.cls-1{fill:#535353;}.cls-2{fill:#e5e5e5;}</style></defs><title>全场景覆盖</title><path class="cls-1" d="M488,630.22H65.64A51.25,51.25,0,0,1,14.44,579V144a51.16,51.16,0,0,1,51.2-51h563a51.23,51.23,0,0,1,51.28,51v64.08h-25.6V144a25.68,25.68,0,0,0-25.6-25.6h-563A25.59,25.59,0,0,0,40.2,144V579.1a25.59,25.59,0,0,0,25.44,25.6H488v25.52Zm-9,111.44-21.92-21.84H224.6l-21.84,21.84-18.08-18.08L214,694.3H467.72L497,723.58Zm0,0"/><path class="cls-1" d="M436.84,681.42h-25.6v-51.2H270.44v51.2h-25.6V604.7h192ZM27.4,502.3H488v25.6H27.4Zm281.44,51.2h64v25.6h-64Zm0,0"/><path class="cls-2" d="M820.6,323.18v-38.4a38.51,38.51,0,0,0-38.4-38.4H564.76a38.51,38.51,0,0,0-38.4,38.4v38.4Zm0,0"/><path class="cls-1" d="M833.48,336H513.56v-51.2a51.25,51.25,0,0,1,51.2-51.2H782.2a51.25,51.25,0,0,1,51.2,51.2V336Zm-294.32-25.6H807.8v-25.6a25.68,25.68,0,0,0-25.6-25.6H564.76a25.68,25.68,0,0,0-25.6,25.6Zm0,0"/><path class="cls-2" d="M526.36,655.82V707a38.36,38.36,0,0,0,11.2,27.28,38.86,38.86,0,0,0,27.2,11.36H782.28a38.41,38.41,0,0,0,38.4-38.4v-51.2Zm0,0"/><path class="cls-1" d="M782.28,758.14H564.76a51.25,51.25,0,0,1-51.2-51.2V643H833.4v64a51.27,51.27,0,0,1-51.12,51.12ZM539.16,668.62V707a25.68,25.68,0,0,0,25.6,25.6H782.2A25.68,25.68,0,0,0,807.8,707v-38.4Zm0,0"/><path class="cls-1" d="M641.56,681.42h64V707h-64Zm191.92-25.6h-25.6V336H539.16v64H513.64v-89.6H833.48ZM513.56,451.1h25.6V655.82h-25.6Zm0,0"/><path class="cls-1" d="M624.92,498.54l-18.08-18.16,29.28-29-29.28-29.6,18.16-18,47.28,47.68Zm0,0"/><path class="cls-1" d="M462.36,438.38H654.28V464H462.36ZM363.88,460l-60.24-59.92,60.24-60.32L382,357.82l-42.08,42.24L382,441.9Zm0,0"/><path class="cls-1" d="M321.64,387.18H577.48v25.6H321.64ZM74.84,409,56.76,390.86,244.84,202.7l85.84,85.84L312.6,306.62l-67.76-67.76Zm0,0"/><path class="cls-1" d="M478.92,319.42,372.84,213.34,305.08,281,287,262.94l85.84-85.84L497,301.34ZM573.8,626.54l-18.08-18.08,98.64-98.64,85.84,85.84-18.08,18.08-67.68-67.68Zm0,0"/><path class="cls-1" d="M701.72,575.34l-18.08-18.08L743.88,497l47.44,47.44-18.08,18.08-29.36-29.28Zm0,0"/></svg>