<svg id="图层_1" data-name="图层 1" xmlns="http://www.w3.org/2000/svg" viewBox="0 0 850.39 850.39"><defs><style>.cls-1{fill:#333;}</style></defs><title>洞见求真 品诚尚行</title><path class="cls-1" d="M492.44,754.38H132.52A35.92,35.92,0,0,1,96.6,718.46V202.14a106.08,106.08,0,0,1,106-106H422.36a106.08,106.08,0,0,1,106,106V718.46a35.92,35.92,0,0,1-35.92,35.92Zm-324-71.84H456.6V202.14A34.19,34.19,0,0,0,422.44,168H202.6a34.19,34.19,0,0,0-34.16,34.16Zm0,0"/><path class="cls-1" d="M747.88,754.38H101.48a35.92,35.92,0,0,1,0-71.84h646.4a35.92,35.92,0,0,1,0,71.84Zm0,0"/><path class="cls-1" d="M650.36,744.86a35.92,35.92,0,0,1-35.92-35.92V570.38a35.92,35.92,0,0,1,71.84,0V708.94a35.92,35.92,0,0,1-35.92,35.92Zm0,0"/><path class="cls-1" d="M650.36,606.22a108,108,0,1,1,108-108,108.11,108.11,0,0,1-108,108Zm0-144.16a36.16,36.16,0,1,0,36.16,36.16,36.24,36.24,0,0,0-36.16-36.16Zm-274.72-91.2H252.92a35.92,35.92,0,1,1,0-71.84H375.64a35.92,35.92,0,1,1,0,71.84Zm0,183.28H252.92a35.92,35.92,0,0,1,0-71.84H375.64a35.92,35.92,0,1,1,0,71.84Zm0,0"/></svg>