<svg id="图层_1" data-name="图层 1" xmlns="http://www.w3.org/2000/svg" viewBox="0 0 490.39 68.03"><defs><style>.cls-1{fill:#2ea7e0;}</style></defs><title>2017-7-25_NGNlogo</title><path class="cls-1" d="M119.81,20.54H96.12V17c0-2.22-.22-3.62-.67-4.18S93.93,12,92.24,12a4.52,4.52,0,0,0-3,.72c-.53.48-.79,1.72-.79,3.7V35.08c0,1.75.26,2.9.79,3.45s1.57.83,3.15.83c1.73,0,2.9-.32,3.52-.94s.92-1.84.92-3.65V30.15H92.07V24.24h27.74V45.13H104.93l-2.2-2.79a16.8,16.8,0,0,1-6.1,2.7,37,37,0,0,1-8.7.9,48.55,48.55,0,0,1-11.18-1.23,24.59,24.59,0,0,1-7.91-3.07,8.11,8.11,0,0,1-3.38-3.83,20.12,20.12,0,0,1-.68-6V20.23q0-5.58,1.41-8.1T74.26,7.5q6.67-2.1,17.25-2.1a68.88,68.88,0,0,1,17.27,1.82q6.87,1.83,9,4.34c1.39,1.67,2.08,4.11,2.08,7.3Z"/><path class="cls-1" d="M181.87,6.21V45.13H161.11L148.79,27.44V45.13H129V6.21h19.81l13.28,17.52V6.21Z"/><path class="cls-1" d="M60,6.2v61H37.65L24.36,39.44V67.16H3V6.2H24.36L38.68,33.65V6.2Z"/><path class="cls-1" d="M66.92,65.68V46.38h2.4v19.3Z"/><path class="cls-1" d="M73.26,65.68v-14h2v2a4.64,4.64,0,0,1,4.18-2.31,5.1,5.1,0,0,1,2.18.46A3.48,3.48,0,0,1,83.11,53a5,5,0,0,1,.69,1.75,14.88,14.88,0,0,1,.12,2.3v8.6H81.7v-8.5A6.88,6.88,0,0,0,81.44,55a2.31,2.31,0,0,0-.92-1.15A2.83,2.83,0,0,0,79,53.44a3.45,3.45,0,0,0-2.45,1c-.69.64-1,1.85-1,3.64v7.64Z"/><path class="cls-1" d="M86.44,61.51l2.2-.37a3.35,3.35,0,0,0,1,2.16,3.44,3.44,0,0,0,2.37.75,3.29,3.29,0,0,0,2.27-.67,2,2,0,0,0,.74-1.56,1.48,1.48,0,0,0-.65-1.26,9.31,9.31,0,0,0-2.28-.8,20,20,0,0,1-3.39-1.14,3.36,3.36,0,0,1-1.43-1.33,3.66,3.66,0,0,1-.49-1.88,3.89,3.89,0,0,1,.4-1.73,3.71,3.71,0,0,1,1.1-1.32,4.21,4.21,0,0,1,1.41-.69,6.33,6.33,0,0,1,1.92-.29,7.09,7.09,0,0,1,2.71.48,3.67,3.67,0,0,1,1.73,1.28,5.22,5.22,0,0,1,.76,2.17l-2.17.31a2.58,2.58,0,0,0-.86-1.68,3,3,0,0,0-2-.61,3.43,3.43,0,0,0-2.18.54A1.59,1.59,0,0,0,89,55.13a1.35,1.35,0,0,0,.27.83,2,2,0,0,0,.85.64c.23.08.88.29,2,.6a27.46,27.46,0,0,1,3.29,1.1,3.37,3.37,0,0,1,1.46,1.25,3.58,3.58,0,0,1,.54,2,4.16,4.16,0,0,1-.65,2.23,4.25,4.25,0,0,1-1.87,1.62,6.36,6.36,0,0,1-2.77.58,5.85,5.85,0,0,1-3.9-1.14A5.37,5.37,0,0,1,86.44,61.51Z"/><path class="cls-1" d="M104.83,63.56l.32,2.09a7.76,7.76,0,0,1-1.68.22,3.6,3.6,0,0,1-1.87-.41,2.23,2.23,0,0,1-.94-1.08,9,9,0,0,1-.27-2.79V53.54H98.76V51.7h1.63V48.24l2.21-1.43V51.7h2.23v1.84H102.6v8.18a4.28,4.28,0,0,0,.12,1.3.9.9,0,0,0,.38.46,1.36,1.36,0,0,0,.76.17A6.93,6.93,0,0,0,104.83,63.56Z"/><path class="cls-1" d="M107,65.68v-14h2v2.12a5.71,5.71,0,0,1,1.42-2,2.35,2.35,0,0,1,1.43-.48,4.15,4.15,0,0,1,2.28.77l-.77,2.19a3,3,0,0,0-1.63-.51,2.06,2.06,0,0,0-1.31.47,2.52,2.52,0,0,0-.82,1.3,9.65,9.65,0,0,0-.37,2.76v7.32Z"/><path class="cls-1" d="M124,65.68V63.63A4.73,4.73,0,0,1,119.87,66a5,5,0,0,1-2.17-.48,3.6,3.6,0,0,1-1.5-1.19,4.66,4.66,0,0,1-.68-1.76,12.7,12.7,0,0,1-.14-2.21V51.7h2.23v7.75a15.17,15.17,0,0,0,.13,2.51,2.48,2.48,0,0,0,.89,1.46,2.6,2.6,0,0,0,1.68.54,3.54,3.54,0,0,0,1.88-.55,3,3,0,0,0,1.24-1.49,8,8,0,0,0,.37-2.73V51.7H126v14Z"/><path class="cls-1" d="M129.5,65.68v-14h2v2A4.88,4.88,0,0,1,133.13,52a4.41,4.41,0,0,1,2.34-.63,4.11,4.11,0,0,1,2.39.65,3.4,3.4,0,0,1,1.31,1.8,4.67,4.67,0,0,1,4.06-2.45,3.88,3.88,0,0,1,3,1.15,5.16,5.16,0,0,1,1.05,3.55v9.6h-2.21V56.87a6.9,6.9,0,0,0-.22-2,2,2,0,0,0-.78-1,2.32,2.32,0,0,0-1.34-.38,3,3,0,0,0-2.3,1,4.5,4.5,0,0,0-.91,3.14v8.12H137.3V56.6a4.11,4.11,0,0,0-.55-2.37,2,2,0,0,0-1.78-.79,3.08,3.08,0,0,0-1.73.52,3,3,0,0,0-1.16,1.54,9.55,9.55,0,0,0-.35,2.93v7.25Z"/><path class="cls-1" d="M159.56,61.18l2.29.3a6,6,0,0,1-2,3.33,6.48,6.48,0,0,1-8.32-.7,7.72,7.72,0,0,1-1.69-5.3,8,8,0,0,1,1.71-5.48A5.6,5.6,0,0,1,156,51.38a5.45,5.45,0,0,1,4.3,1.91,7.92,7.92,0,0,1,1.67,5.37c0,.14,0,.35,0,.63h-9.79a5.51,5.51,0,0,0,1.23,3.53,3.51,3.51,0,0,0,2.74,1.23,3.27,3.27,0,0,0,2.09-.69A4.58,4.58,0,0,0,159.56,61.18Zm-7.3-3.83h7.32a5,5,0,0,0-.84-2.65A3.34,3.34,0,0,0,156,53.33a3.47,3.47,0,0,0-2.58,1.09A4.5,4.5,0,0,0,152.26,57.35Z"/><path class="cls-1" d="M164.65,65.68v-14h2v2a4.63,4.63,0,0,1,4.17-2.31,5.07,5.07,0,0,1,2.18.46A3.42,3.42,0,0,1,174.49,53a4.65,4.65,0,0,1,.69,1.75,14.53,14.53,0,0,1,.13,2.3v8.6h-2.23v-8.5a6.59,6.59,0,0,0-.26-2.17,2.26,2.26,0,0,0-.92-1.15,2.81,2.81,0,0,0-1.55-.42,3.49,3.49,0,0,0-2.45,1c-.69.64-1,1.85-1,3.64v7.64Z"/><path class="cls-1" d="M183.57,63.56l.32,2.09a7.76,7.76,0,0,1-1.68.22,3.64,3.64,0,0,1-1.88-.41,2.26,2.26,0,0,1-.93-1.08,8.6,8.6,0,0,1-.28-2.79V53.54h-1.63V51.7h1.63V48.24l2.21-1.43V51.7h2.24v1.84h-2.24v8.18a4.28,4.28,0,0,0,.12,1.3,1,1,0,0,0,.38.46,1.36,1.36,0,0,0,.76.17A6.92,6.92,0,0,0,183.57,63.56Z"/><path class="cls-1" d="M201.57,54c0-.33-.07-1.44-.07-2a41.82,41.82,0,0,1-5.63,2.75,27.14,27.14,0,0,0-4.12-6c6.87-2.16,12.18-5.24,16.37-9.63h-3.34c-2.1,0-3.73.07-5.17.2.13-1.57.19-2.88.19-4.58V24c0-1.71-.06-3.08-.19-4.59a42.09,42.09,0,0,0,5.17.2h3V17.09h-8.51a46.59,46.59,0,0,0-7.2.39V10.81a61.79,61.79,0,0,0,7.39.39h8.32v-.59a29,29,0,0,0-.2-3.54h7.21a17.88,17.88,0,0,0-.27,3.54v.59h13.75v-.59A18.81,18.81,0,0,0,228,7.07h7.2a28,28,0,0,0-.19,3.6v.53h8.71a61.79,61.79,0,0,0,7.39-.39v6.67a44.12,44.12,0,0,0-7.13-.39h-9v2.49h3.6a43.73,43.73,0,0,0,5.17-.2c-.13,1.44-.19,2.75-.19,4.59V34.84c0,1.83.06,3.07.19,4.58-1.44-.13-3.14-.2-5.24-.2H216.5a23.37,23.37,0,0,1-1.9,2.36h29.79c2.49,0,4.12-.07,5.5-.2-.2,1.38-.2,1.57-.46,4.65-1.11,12.77-1.9,16.7-3.6,18.66-1.83,2.16-4.19,2.88-9.69,2.88-1.7,0-3.08-.06-5.17-.19a15.5,15.5,0,0,0-.59-3.41H205.69a36.93,36.93,0,0,0-4.32.2c.13-1.84.2-3.54.2-6.68Zm12.18,4.26a15.3,15.3,0,0,0-3.93-4.85c6.42-2,8.51-3.14,11.06-6.42H209c-.92.72-2.16,1.64-3.47,2.49h2.94a37.34,37.34,0,0,0-.26,5.17v3.61ZM206.55,27H236.8V24.56H206.55Zm0,7.07H236.8V31.36H206.55Zm22.26,24.23c2.35,0,3.4,0,4.32-.07a56,56,0,0,0-9.82-5c-2.56,2.29-4.19,3.21-9,5.11Zm-.53-41.19H214.53v2.49h13.75ZM227.82,47a7.3,7.3,0,0,1-1,2c6.22,2.29,6.28,2.29,10,4.19l-3.61,5a1.09,1.09,0,0,1,.53-.07,8,8,0,0,0,1.44-.19v3.47c3.66,0,5-.66,5.69-2.69.53-1.57,1.05-5.69,1.44-11.72Z"/><path class="cls-1" d="M315.69,12.18a54.5,54.5,0,0,0,7.66-.39v7.4a66.61,66.61,0,0,0-7.66-.4H296.83l-.19,4.65h17.81a46.34,46.34,0,0,0,6-.26,48.35,48.35,0,0,0-.27,5.83V59.46c0,6.15-1.76,7.52-9.42,7.52-1.84,0-3.61-.06-6.23-.19a17.45,17.45,0,0,0-1.7-7,62.59,62.59,0,0,0,7.27.53c2.55,0,3-.27,3-1.64V29.79H274.7V60.24a48.52,48.52,0,0,0,.33,7.33h-7.86a57.17,57.17,0,0,0,.4-7.72V29a48.35,48.35,0,0,0-.27-5.83,57.55,57.55,0,0,0,6.42.26h15.71l.14-4.65H271.82a62.89,62.89,0,0,0-7.59.4v-7.4a59.39,59.39,0,0,0,7.59.39h18V10.81a27.61,27.61,0,0,0-.26-4.13l8.12.46a33.3,33.3,0,0,0-.59,5Zm-20.3,25.28A34.37,34.37,0,0,0,299.06,30l6.68,1.37a34.33,34.33,0,0,1-3.34,6.1h1.77a39.88,39.88,0,0,0,5.56-.27v6.42a46.12,46.12,0,0,0-5.69-.26h-7.47v4.84h9.23a36.79,36.79,0,0,0,5.5-.26v6.35c-1.63-.13-2.88-.19-5.56-.19h-9.17v4.12A52.4,52.4,0,0,0,297,66H289.5a64.66,64.66,0,0,0,.33-7.79V54.09H282.1a51.71,51.71,0,0,0-6,.26V47.93a47.31,47.31,0,0,0,6.16.26h7.53V43.35h-7.14a34.37,34.37,0,0,0-5,.26V37.19a42.75,42.75,0,0,0,5.7.27h.85A34.62,34.62,0,0,0,281.51,32l6-2.09a43.64,43.64,0,0,1,3.47,7.53Z"/><path class="cls-1" d="M336.57,42.43c4.26.33,5.64.39,7.73.39h19.78A97.79,97.79,0,0,0,365.25,28a46.37,46.37,0,0,0-.26-6.15h7.86a40.76,40.76,0,0,0-.33,5.5,149.45,149.45,0,0,1-1.18,15.51h16.31a40.89,40.89,0,0,0,7.53-.52v7.4a51.32,51.32,0,0,0-7.47-.33H370a18.76,18.76,0,0,1-4.71,7,39.9,39.9,0,0,1-11.85,7.46,66.88,66.88,0,0,1-13.56,4,16.73,16.73,0,0,0-4.19-7,56.89,56.89,0,0,0,16.57-4.25A33.82,33.82,0,0,0,360,52.19a10.56,10.56,0,0,0,2.36-2.75h-18c-2.49,0-5,.13-7.66.39ZM361.52,12.7A41.35,41.35,0,0,0,359,8.58L366.24,6a41.5,41.5,0,0,1,3.47,6.74H387c3.34,0,4.85-.06,7.27-.26a36.28,36.28,0,0,0-.26,4.78v5a34.24,34.24,0,0,0,.26,4.84h-7.07V18.86H344.56V27h-7.13a24.88,24.88,0,0,0,.32-4.84V17.35a39.13,39.13,0,0,0-.26-4.91c2.29.2,3.87.26,7.21.26Zm-6.61,28.49a43.89,43.89,0,0,0-12.57-6.09l4.45-5c4.91,1.51,6.81,2.36,12.44,5.57Zm4.39-9.1a41.8,41.8,0,0,0-12.58-5.83l4.52-4.72a56.7,56.7,0,0,1,12.38,5.18ZM373,51.2c2.29.86,2.82,1,5.7,2.3,10.28,4.32,13,5.56,17.09,7.92L392.23,68c-7-4.12-13-6.94-23.44-11.19Z"/><path class="cls-1" d="M448.4,8.58a52.05,52.05,0,0,0-.58,7.66V58h11.85a61.66,61.66,0,0,0,7.72-.39v7.59a70.46,70.46,0,0,0-7.72-.39H415.86a70.12,70.12,0,0,0-7.66.39V57.56a61.38,61.38,0,0,0,7.66.39h11.2L427,16.11a55.7,55.7,0,0,0-.52-7.53h8.18a52.57,52.57,0,0,0-.39,7.73V58h6.35V16.11a53.1,53.1,0,0,0-.39-7.53ZM417.5,20.43c2.75,6.74,4.39,12.44,7.14,24.29l-6.81,2.56c-3.08-14.21-4.26-18.34-6.88-24.62Zm46.82,2.88c-.59,2-.59,2-1.38,5.17-2.82,10.41-3.93,13.62-6.55,19.25L450,44.92c3.14-6.88,4.71-12.05,7.46-24.16Z"/><path class="cls-1" d="M488.22,8.58a8.54,8.54,0,0,1-4.28,7.4,8.56,8.56,0,0,1-11.68-3.12,8.35,8.35,0,0,1-1.15-4.28,8.6,8.6,0,0,1,4.28-7.41,8.59,8.59,0,0,1,8.55,0,8.6,8.6,0,0,1,4.28,7.41Zm-1.66,0a6.64,6.64,0,0,0-2-4.88,6.9,6.9,0,0,0-9.76,0,6.64,6.64,0,0,0-2,4.88,6.65,6.65,0,0,0,2,4.88,6.9,6.9,0,0,0,9.76,0A6.65,6.65,0,0,0,486.56,8.58ZM475.78,4h4.09a3.7,3.7,0,0,1,2.52.7,2.39,2.39,0,0,1,.77,1.88,2.31,2.31,0,0,1-.59,1.59,3.52,3.52,0,0,1-1.87,1,2.33,2.33,0,0,1,.77.43,4,4,0,0,1,.73.93l1.48,2.64H481A20.19,20.19,0,0,0,479.23,10a1.23,1.23,0,0,0-.89-.51l-.28,0v3.6h-2.28Zm2.28,3.87h1a2.32,2.32,0,0,0,1.39-.31,1.07,1.07,0,0,0,0-1.65,2.13,2.13,0,0,0-1.32-.32h-1.07Z"/></svg>